<?xml version="1.0" encoding="utf-8"?>
<!-- Generator: Adobe Illustrator 27.0.0, SVG Export Plug-In . SVG Version: 6.00 Build 0)  -->
<svg version="1.1" id="Layer_1" xmlns="http://www.w3.org/2000/svg" xmlns:xlink="http://www.w3.org/1999/xlink" x="0px" y="0px"
	 viewBox="0 0 4000 4000" style="enable-background:new 0 0 4000 4000;" xml:space="preserve">
<style type="text/css">
	.st0{fill:#EC4899;}
	.st1{fill:#FFFFFF;}
	.st2{fill:none;}
	.st3{fill:#ED1B24;}
</style>
<g>
	<g>
		<path class="st0" d="M1222.07,2263.91c-13.51-5.53-24.3-13.72-32.38-24.57c-8.08-10.84-12.34-23.91-12.78-39.18h60.44
			c0.88,8.63,3.87,15.22,8.97,19.76c5.09,4.54,11.73,6.81,19.92,6.81c8.41,0,15.05-1.94,19.92-5.81c4.87-3.87,7.31-9.24,7.31-16.11
			c0-5.75-1.94-10.51-5.81-14.28c-3.88-3.76-8.63-6.86-14.28-9.3c-5.65-2.43-13.67-5.2-24.07-8.3c-15.06-4.65-27.34-9.3-36.86-13.95
			c-9.52-4.65-17.71-11.51-24.57-20.59c-6.86-9.07-10.29-20.92-10.29-35.53c0-21.69,7.86-38.69,23.58-50.97
			c15.72-12.29,36.19-18.43,61.43-18.43c25.68,0,46.37,6.14,62.1,18.43c15.72,12.29,24.13,29.39,25.24,51.3h-61.43
			c-0.45-7.52-3.21-13.45-8.3-17.77c-5.1-4.32-11.62-6.48-19.59-6.48c-6.86,0-12.4,1.83-16.6,5.48c-4.21,3.65-6.31,8.91-6.31,15.77
			c0,7.53,3.54,13.4,10.63,17.6c7.08,4.21,18.15,8.75,33.21,13.62c15.05,5.09,27.28,9.96,36.69,14.61
			c9.41,4.65,17.54,11.4,24.41,20.26c6.86,8.86,10.29,20.26,10.29,34.2c0,13.28-3.38,25.35-10.13,36.2
			c-6.76,10.85-16.55,19.48-29.39,25.9c-12.84,6.42-28.01,9.63-45.49,9.63C1250.84,2272.22,1235.57,2269.45,1222.07,2263.91z"/>
		<path class="st0" d="M1552.8,2103.69c12.84,14.06,19.26,33.37,19.26,57.95v108.25h-56.45v-100.62c0-12.4-3.21-22.03-9.63-28.89
			c-6.42-6.86-15.06-10.29-25.9-10.29c-10.85,0-19.48,3.43-25.9,10.29c-6.42,6.86-9.63,16.49-9.63,28.89v100.62h-56.78v-245.73
			h56.78v85.34c5.75-8.19,13.61-14.72,23.58-19.59c9.96-4.87,21.14-7.3,33.54-7.3C1522.92,2082.61,1539.96,2089.64,1552.8,2103.69z"
			/>
		<path class="st0" d="M1611.08,2126.77c7.19-14.39,16.99-25.46,29.39-33.21c12.4-7.75,26.23-11.62,41.51-11.62
			c13.06,0,24.52,2.66,34.37,7.97c9.85,5.31,17.43,12.29,22.75,20.92v-26.23h56.78v185.29h-56.78v-26.23
			c-5.54,8.63-13.23,15.61-23.08,20.92c-9.85,5.31-21.31,7.97-34.37,7.97c-15.06,0-28.78-3.93-41.18-11.79
			c-12.4-7.86-22.2-19.04-29.39-33.54c-7.2-14.5-10.79-31.27-10.79-50.31C1600.29,2157.88,1603.88,2141.16,1611.08,2126.77z
			 M1727.3,2143.71c-7.86-8.19-17.43-12.29-28.72-12.29s-20.87,4.04-28.72,12.12c-7.86,8.08-11.79,19.21-11.79,33.37
			c0,14.17,3.93,25.4,11.79,33.71c7.86,8.3,17.43,12.45,28.72,12.45s20.86-4.09,28.72-12.29c7.86-8.19,11.79-19.37,11.79-33.54
			C1739.09,2163.08,1735.16,2151.9,1727.3,2143.71z"/>
		<path class="st0" d="M1918.73,2091.41c9.96-5.86,21.03-8.8,33.21-8.8v60.1h-15.61c-14.17,0-24.8,3.05-31.88,9.13
			c-7.09,6.09-10.63,16.77-10.63,32.04v86h-56.78V2084.6h56.78v30.88C1900.47,2105.3,1908.77,2097.28,1918.73,2091.41z"/>
		<path class="st1" d="M2124.28,2228.72h-87l-13.95,41.18h-59.44l84.34-233.11h65.75l84.34,233.11h-60.1L2124.28,2228.72z
			 M2109.67,2184.88l-28.89-85.34l-28.56,85.34H2109.67z"/>
		<path class="st1" d="M2303.59,2089.91c9.74-5.31,21.14-7.97,34.2-7.97c15.27,0,29.11,3.88,41.51,11.62
			c12.4,7.75,22.19,18.82,29.39,33.21c7.19,14.39,10.79,31.11,10.79,50.14c0,19.04-3.6,35.81-10.79,50.31
			c-7.2,14.5-16.99,25.68-29.39,33.54c-12.4,7.86-26.23,11.79-41.51,11.79c-12.84,0-24.19-2.66-34.04-7.97
			c-9.85-5.31-17.55-12.17-23.08-20.59v114.23h-56.78V2084.6h56.78v26.23C2286.21,2102.2,2293.85,2095.23,2303.59,2089.91z
			 M2349.92,2143.54c-7.86-8.08-17.55-12.12-29.06-12.12c-11.29,0-20.87,4.1-28.72,12.29c-7.86,8.19-11.79,19.37-11.79,33.54
			c0,14.17,3.93,25.35,11.79,33.54c7.86,8.19,17.43,12.29,28.72,12.29c11.29,0,20.92-4.15,28.89-12.45s11.95-19.54,11.95-33.71
			C2361.7,2162.75,2357.77,2151.62,2349.92,2143.54z"/>
		<path class="st1" d="M2632.33,2084.6v185.29h-56.78v-25.24c-5.76,8.19-13.56,14.78-23.41,19.76c-9.85,4.98-20.75,7.47-32.71,7.47
			c-14.17,0-26.68-3.15-37.52-9.46c-10.85-6.31-19.26-15.44-25.24-27.4c-5.98-11.95-8.97-26.01-8.97-42.17V2084.6h56.45v100.62
			c0,12.4,3.21,22.03,9.63,28.89c6.42,6.86,15.05,10.29,25.9,10.29c11.07,0,19.81-3.43,26.23-10.29c6.42-6.86,9.63-16.49,9.63-28.89
			V2084.6H2632.33z"/>
	</g>
	<path class="st2" d="M2299.35,2150.63c-6.06,6.31-9,15.02-9,26.61c0,11.6,2.94,20.3,9,26.61c5.94,6.2,12.98,9.21,21.51,9.21
		c8.53,0,15.62-3.07,21.68-9.38c6.17-6.43,9.17-15.19,9.17-26.78c0-11.56-2.93-20.2-8.96-26.4c-1.16-1.19-2.37-2.26-3.63-3.22
		c-0.17,0.26-0.35,0.52-0.52,0.78v-1.17c-5.06-3.68-10.91-5.49-17.73-5.49C2312.33,2141.42,2305.3,2144.43,2299.35,2150.63z"/>
	<polygon class="st2" points="2066.11,2174.88 2095.73,2174.88 2080.83,2130.89 	"/>
	<path class="st2" d="M1698.58,2141.42c-8.55,0-15.61,2.97-21.55,9.09c-6.03,6.2-8.96,14.83-8.96,26.4c0,11.62,2.96,20.4,9.05,26.83
		c5.94,6.28,12.96,9.33,21.46,9.33c8.53,0,15.56-3.01,21.51-9.21c6.06-6.31,9-15.02,9-26.62c0-11.59-2.95-20.3-9.01-26.62
		C1714.14,2144.43,1707.1,2141.42,1698.58,2141.42z"/>
	<path class="st3" d="M2339.12,2147.29c-0.17-0.13-0.35-0.25-0.52-0.38v1.17C2338.76,2147.81,2338.94,2147.55,2339.12,2147.29z"/>
	<polygon class="st2" points="2066.11,2174.88 2095.73,2174.88 2080.83,2130.89 	"/>
	<path class="st2" d="M1698.58,2141.42c-8.55,0-15.61,2.97-21.55,9.09c-6.03,6.2-8.96,14.83-8.96,26.4c0,11.62,2.96,20.4,9.05,26.83
		c5.94,6.28,12.96,9.33,21.46,9.33c8.53,0,15.56-3.01,21.51-9.21c6.06-6.31,9-15.02,9-26.62c0-11.59-2.95-20.3-9.01-26.62
		C1714.14,2144.43,1707.1,2141.42,1698.58,2141.42z"/>
	<path class="st2" d="M2539.69,2214.4c8.25,0,14.44-2.33,18.93-7.13c4.66-4.98,6.93-12.2,6.93-22.06v-27.3
		c-15.46,13.94-32.39,26.28-50.54,36.75c1.04,5.21,3.05,9.38,6.07,12.6C2525.57,2212.07,2531.65,2214.4,2539.69,2214.4z"/>
	<path class="st3" d="M2367.99,1998.59c0,0-16.14-114.85,104.79-74.54c0,0,56.42-84.64,145.07-26.21c0,0,17.21-13.38,40.26-15.96
		c-26.2-136.76-146.44-240.11-290.84-240.11c-163.56,0-296.16,132.59-296.16,296.16c0,30.95,4.76,60.8,13.57,88.84H2121
		l47.19,130.42c14.07,12.78,29.37,24.22,45.71,34.13V2074.6h76.78v11.61c2.56-1.82,5.27-3.52,8.12-5.08
		c11.18-6.1,24.3-9.19,38.99-9.19c17.1,0,32.85,4.42,46.81,13.14c13.92,8.71,25.04,21.23,33.03,37.21
		c7.86,15.74,11.85,34.11,11.85,54.61c0,19.64-3.66,37.37-10.88,52.74c7.89-1.38,15.67-3.07,23.33-5.06
		c-2.81-9.68-4.24-20.3-4.24-31.74V2074.6h76.45v110.62c0,3.48,0.29,6.61,0.86,9.45c18.15-10.47,35.08-22.81,50.54-36.75v-83.32
		h64.51c13.17-25.28,22.8-52.69,28.23-81.58l-56.56-2.48L2367.99,1998.59z"/>
	<polygon class="st3" points="2663.43,1937.94 2663.43,1937.93 2663.43,1937.94 	"/>
	<path class="st3" d="M2320.86,2141.42c-8.53,0-15.56,3.01-21.51,9.21c-6.06,6.31-9,15.02-9,26.61c0,11.6,2.94,20.3,9,26.61
		c5.94,6.2,12.98,9.21,21.51,9.21c8.53,0,15.62-3.07,21.68-9.38c6.17-6.43,9.17-15.19,9.17-26.78c0-11.56-2.93-20.2-8.96-26.4
		C2336.79,2144.4,2329.63,2141.42,2320.86,2141.42z"/>
	<path class="st1" d="M2658.29,1993.02l1.37,0.06c2.48-18.02,3.76-36.43,3.76-55.14c0,0,0,0,0,0
		C2663.43,1956.76,2661.65,1975.17,2658.29,1993.02z"/>
	<path class="st1" d="M2659.54,1881.73c-0.48,0.04-0.96,0.1-1.43,0.15c3.48,18.15,5.32,36.88,5.32,56.05
		C2663.43,1918.88,2662.11,1900.1,2659.54,1881.73z"/>
	<path class="st1" d="M2663.43,1937.93c0-19.16-1.84-37.9-5.32-56.05c-23.04,2.58-40.26,15.96-40.26,15.96
		c-88.65-58.43-145.07,26.21-145.07,26.21c-120.94-40.31-104.79,74.54-104.79,74.54l233.75-8.06l56.56,2.48
		C2661.65,1975.17,2663.43,1956.76,2663.43,1937.93C2663.43,1937.94,2663.43,1937.94,2663.43,1937.93z"/>
	<g>
		<path class="st1" d="M2754.78,2267.9c3.17,0.51,5.92,0.81,8.6,1.42c7.4,1.68,13.98,4.77,18.33,11.38
			c0.36,0.55,1.02,1.13,0.56,1.87c-0.37,0.61-1.09,0.32-1.64,0.29c-15.36-0.61-30.72-1.3-45.72-5.15c-1.64-0.42-3.41-0.73-4.82-1.58
			c-5.74-3.46-12.03-1.91-18.11-2.24c-0.9-0.05-1.39,0.27-1.75,1.2c-1.93,5-6.06,6.98-11.01,7.44c-9.46,0.9-18.96,0.2-28.44,0.39
			c-2.16,0.04-4.32,0.01-7.36,0.01c2.15-1.86,3.69-3.18,5.21-4.52c8.64-7.6,16.85-15.6,23.09-25.38c3.77-5.91,5.21-11.93,2.96-19.02
			c-4.03-12.74-7.34-25.67-9.08-38.99c-3.37-25.76,4.15-48.32,19.57-68.64c4.58-6.04,9.88-11.61,12.67-18.8
			c7.89-20.34,12.77-41.21,9.44-63.19c-2.32-15.31-11.02-27.33-28.51-30.5c-0.16-0.03-0.29-0.23-0.71-0.58
			c4.35-3.22,9.28-4.53,14.37-5.26c2.75-0.4,5.57-0.41,8.35-0.57c1.09-0.06,2.14-0.04,3.2-0.53c14.91-6.87,29.6-4.74,44.05,1.41
			c4.94,2.1,8.14,6.35,10.83,10.87c5.55,9.31,8.34,19.61,10.44,30.11c2.85,14.22,4.18,28.62,4.55,43.11c0.01,0.49,0,0.98-0.43,1.54
			c-0.69-3.07-1.28-6.17-2.09-9.21c-3.61-13.59-9.02-26.24-19.4-36.19c-3.11-2.98-6.48-5.63-10.6-7.14
			c-5.47-1.99-9.61-0.43-12.09,4.86c-3.08,6.54-2.98,13.51-2.56,20.55c0.84,14.31,7.5,26.51,13.64,38.95
			c7.42,15.04,14.34,30.32,18.06,46.8c2.17,9.64,2.28,19.4,0.9,29.17c-0.31,2.18-0.86,4.32-1.89,6.28c-1.51,2.87-3.71,3.22-6,0.91
			c-2.48-2.51-4.11-5.63-5.76-8.71c-5.01-9.31-9.53-18.87-15.6-27.6c-6.87-9.87-16.39-15.19-27.95-17.37
			c-1.72-0.33-3.47-0.51-5.87-0.03c2.46,1.75,4.53,3.06,6.23,4.83c4.51,4.69,6.04,10.05,3.49,16.18
			c-2.53,6.08-5.34,12.03-7.89,18.11c-6.27,14.97-7.07,29.91,0.11,44.91c5.84,12.19,15.72,17.75,28.85,17.53
			c6.14-0.1,11.36-3.56,16.36-6.87c8.69-5.75,15.4-13.38,19.7-22.85c5.95-13.09,11.01-26.53,14.08-40.64
			c2.73-12.54,1.48-25.03-0.68-37.48c-1.41-8.14-2.95-16.27-4.49-24.7c1.59,0.51,2.52,1.66,3.52,2.63
			c13.01,12.53,20.56,28.04,24.58,45.41c4.18,18.09,3.62,36.25,0.57,54.43c-0.13,0.79-0.13,1.71-1.08,1.94
			c-1.2,0.29-1.45-0.85-1.87-1.57c-3.81-6.67-7.61-13.36-12.06-19.64c-0.96-1.35-1.86-2.79-3.5-3.97
			C2797.94,2218.16,2782.95,2246.54,2754.78,2267.9z"/>
	</g>
</g>
</svg>
