<?xml version="1.0" encoding="utf-8"?>
<!-- Generator: Adobe Illustrator 27.0.0, SVG Export Plug-In . SVG Version: 6.00 Build 0)  -->
<svg version="1.1" id="Layer_1" xmlns="http://www.w3.org/2000/svg" xmlns:xlink="http://www.w3.org/1999/xlink" x="0px" y="0px"
	 viewBox="0 0 4000 4000" style="enable-background:new 0 0 4000 4000;" xml:space="preserve">
<style type="text/css">
	.st0{fill:#EC4899;}
	.st1{fill:#FFFFFF;}
	.st2{fill:none;}
	.st3{fill:#ED1B24;}
</style>
<g>
	<g>
		<g>
			<path class="st0" d="M1347.73,2280.22c-18.02,0-34.46-2.99-48.86-8.9c-14.8-6.06-26.83-15.21-35.76-27.2
				c-9.04-12.13-13.88-26.85-14.36-43.73l-0.24-8.23h75.89l0.73,7.19c0.68,6.64,2.75,11.41,6.33,14.6c3.61,3.22,8.39,4.78,14.6,4.78
				c6.52,0,11.55-1.37,14.94-4.07c2.96-2.36,4.29-5.39,4.29-9.84c0-3.58-1.08-6.29-3.39-8.54c-3.15-3.06-7.15-5.65-11.87-7.69
				c-5.31-2.29-13.11-4.97-23.19-7.98c-15.45-4.77-28.24-9.62-38.08-14.42c-10.62-5.19-19.86-12.91-27.44-22.96
				c-7.9-10.45-11.91-24.02-11.91-40.35c0-24.18,8.97-43.46,26.65-57.28c17.08-13.35,39.41-20.12,66.36-20.12
				c27.38,0,49.93,6.77,67.02,20.12c17.55,13.72,27.07,32.97,28.3,57.2l0.43,8.41h-77.39l-0.45-7.53
				c-0.32-5.38-2.06-9.23-5.49-12.14c-3.63-3.08-8.35-4.58-14.42-4.58c-4.92,0-8.63,1.15-11.35,3.52c-1.53,1.33-3.56,3.78-3.56,9.73
				c0,4.66,2.07,7.97,6.71,10.72c6.55,3.89,17.18,8.23,31.59,12.88l0.1,0.03c15.33,5.19,28,10.24,37.67,15.02
				c10.46,5.17,19.6,12.75,27.19,22.53c7.95,10.26,11.97,23.42,11.97,39.11c0,14.74-3.81,28.34-11.34,40.42
				c-7.52,12.07-18.49,21.77-32.6,28.83C1382.9,2276.69,1366.39,2280.22,1347.73,2280.22z"/>
			<path class="st1" d="M1342.41,2033.46c25.68,0,46.37,6.14,62.1,18.43c15.72,12.29,24.13,29.39,25.24,51.3h-61.43
				c-0.45-7.52-3.21-13.45-8.3-17.77c-5.1-4.32-11.62-6.48-19.59-6.48c-6.86,0-12.4,1.83-16.6,5.48c-4.21,3.65-6.31,8.91-6.31,15.77
				c0,7.53,3.54,13.4,10.63,17.6c7.08,4.21,18.15,8.75,33.21,13.62c15.05,5.09,27.28,9.96,36.69,14.61
				c9.41,4.65,17.54,11.4,24.41,20.26c6.86,8.86,10.29,20.26,10.29,34.2c0,13.28-3.38,25.35-10.13,36.2
				c-6.76,10.85-16.55,19.48-29.39,25.9c-12.84,6.42-28.01,9.63-45.49,9.63c-17.05,0-32.32-2.77-45.83-8.3
				c-13.51-5.53-24.3-13.72-32.38-24.57c-8.08-10.84-12.34-23.91-12.78-39.18h60.44c0.88,8.63,3.87,15.22,8.97,19.76
				c5.09,4.54,11.73,6.81,19.92,6.81c8.41,0,15.05-1.94,19.92-5.81c4.87-3.87,7.31-9.24,7.31-16.11c0-5.75-1.94-10.51-5.81-14.28
				c-3.88-3.76-8.63-6.86-14.28-9.3c-5.65-2.43-13.67-5.2-24.07-8.3c-15.06-4.65-27.34-9.3-36.86-13.95
				c-9.52-4.65-17.71-11.51-24.57-20.59c-6.86-9.07-10.29-20.92-10.29-35.53c0-21.69,7.86-38.69,23.58-50.97
				C1296.7,2039.6,1317.18,2033.46,1342.41,2033.46 M1342.41,2017.46c-28.78,0-52.76,7.34-71.29,21.82
				c-19.72,15.41-29.72,36.8-29.72,63.58c0,18.11,4.55,33.31,13.53,45.18c8.35,11.05,18.55,19.57,30.31,25.31
				c7.39,3.61,16.34,7.23,26.7,10.8h-55.21h-16.47l0.48,16.46c0.54,18.56,5.9,34.81,15.95,48.28c9.8,13.16,22.97,23.19,39.14,29.82
				c15.36,6.3,32.82,9.5,51.89,9.5c19.92,0,37.64-3.81,52.65-11.32c15.45-7.73,27.5-18.41,35.81-31.75
				c8.33-13.37,12.55-28.4,12.55-44.65c0-17.51-4.59-32.31-13.64-44c-8.34-10.75-18.42-19.09-29.97-24.8
				c-8.27-4.08-18.21-8.2-30.23-12.49h54.85h16.83l-0.85-16.81c-1.35-26.66-11.9-47.89-31.36-63.1
				C1395.83,2024.8,1371.63,2017.46,1342.41,2017.46L1342.41,2017.46z M1352.78,2111.51c-8.58-3.24-13.59-5.75-16.47-7.46
				c-2.8-1.66-2.8-2.62-2.8-3.84c0-0.7,0.06-3.05,0.8-3.69c1.2-1.04,3.25-1.56,6.12-1.56c6.08,0,8.47,2.02,9.25,2.68
				c1.19,1.01,2.44,2.57,2.67,6.51L1352.78,2111.51L1352.78,2111.51z M1346.07,2210.72c-5.55,0-7.95-1.57-9.27-2.75
				c-2-1.78-3.24-4.95-3.7-9.44l-0.81-7.88c6.09,1.95,10.97,3.72,14.58,5.28c3.82,1.65,7.01,3.7,9.47,6.09
				c0.46,0.45,0.95,0.93,0.95,2.8c0,2.58-0.67,3.11-1.27,3.58C1353.6,2210.32,1349.27,2210.72,1346.07,2210.72L1346.07,2210.72z"/>
		</g>
		<g>
			<path class="st0" d="M1587.44,2277.89v-108.62c0-10.39-2.44-18.05-7.47-23.43c-4.89-5.22-11.45-7.76-20.06-7.76
				c-8.61,0-15.17,2.54-20.06,7.76c-5.03,5.37-7.47,13.03-7.47,23.42v108.62h-72.78v-261.73h72.78v73.87
				c3.68-2.74,7.7-5.18,12.06-7.31c11.03-5.39,23.49-8.12,37.05-8.12c23.49,0,42.68,7.97,57.04,23.69
				c14.17,15.52,21.35,36.83,21.35,63.34v116.25H1587.44z"/>
			<path class="st1" d="M1524.38,2024.16v85.34c5.75-8.19,13.61-14.72,23.58-19.59c9.96-4.87,21.14-7.3,33.54-7.3
				c21.25,0,38.3,7.03,51.14,21.09c12.84,14.06,19.26,33.37,19.26,57.95v108.25h-56.45v-100.62c0-12.4-3.21-22.03-9.63-28.89
				c-6.42-6.86-15.06-10.29-25.9-10.29c-10.85,0-19.48,3.43-25.9,10.29c-6.42,6.86-9.63,16.49-9.63,28.89v100.62h-56.78v-245.73
				H1524.38 M1540.38,2008.16h-16h-56.78h-16v16v245.73v16h16h56.78h16v-16v-100.62c0-8.15,1.79-14.19,5.31-17.96
				c2.1-2.24,5.86-5.23,14.22-5.23c8.36,0,12.12,2.98,14.22,5.23c3.52,3.76,5.31,9.81,5.31,17.95v100.62v16h16h56.45h16v-16v-108.25
				c0-28.57-7.89-51.69-23.44-68.73c-15.94-17.45-37.12-26.3-62.95-26.3c-14.79,0-28.43,3-40.56,8.93
				c-0.19,0.09-0.37,0.18-0.55,0.27v-51.64V2008.16L1540.38,2008.16z"/>
		</g>
		<g>
			<path class="st0" d="M1761.47,2280.55c-16.53,0-31.82-4.38-45.46-13.03c-13.59-8.61-24.45-20.97-32.27-36.74
				c-7.71-15.54-11.62-33.66-11.62-53.86s3.92-38.28,11.64-53.72c7.82-15.65,18.69-27.91,32.3-36.41
				c13.63-8.52,29.02-12.84,45.75-12.84c14.34,0,27.18,3,38.17,8.93c3.96,2.14,7.61,4.53,10.95,7.18v-13.45h72.78v201.29h-72.78
				v-13.68c-3.44,2.74-7.21,5.21-11.28,7.41C1788.65,2277.54,1775.81,2280.55,1761.47,2280.55z M1778.41,2139.42
				c-9.12,0-16.64,3.17-22.99,9.7c-6.41,6.59-9.52,15.68-9.52,27.79c0,12.16,3.14,21.38,9.6,28.21c6.34,6.7,13.83,9.95,22.91,9.95
				c9.1,0,16.61-3.21,22.95-9.83c6.43-6.71,9.56-15.86,9.56-28c0-12.13-3.13-21.29-9.56-28
				C1795.01,2142.63,1787.51,2139.42,1778.41,2139.42z"/>
			<path class="st1" d="M1761.81,2081.94c13.06,0,24.52,2.66,34.37,7.97c9.85,5.31,17.43,12.29,22.75,20.92v-26.23h56.78v185.29
				h-56.78v-26.23c-5.54,8.63-13.23,15.61-23.08,20.92c-9.85,5.31-21.31,7.97-34.37,7.97c-15.06,0-28.78-3.93-41.18-11.79
				c-12.4-7.86-22.2-19.04-29.39-33.54c-7.2-14.5-10.79-31.27-10.79-50.31c0-19.04,3.6-35.75,10.79-50.14
				c7.19-14.39,16.99-25.46,29.39-33.21C1732.69,2085.82,1746.53,2081.94,1761.81,2081.94 M1778.41,2223.07
				c11.29,0,20.86-4.09,28.72-12.29c7.86-8.19,11.79-19.37,11.79-33.54c0-14.16-3.93-25.35-11.79-33.54
				c-7.86-8.19-17.43-12.29-28.72-12.29s-20.87,4.04-28.72,12.12c-7.86,8.08-11.79,19.21-11.79,33.37c0,14.17,3.93,25.4,11.79,33.71
				C1757.54,2218.92,1767.12,2223.07,1778.41,2223.07 M1761.81,2065.94c-18.25,0-35.07,4.73-49.99,14.05
				c-14.88,9.3-26.73,22.63-35.22,39.62c-8.28,16.56-12.48,35.84-12.48,57.3c0,21.45,4.19,40.77,12.46,57.42
				c8.48,17.09,20.31,30.53,35.16,39.94c14.93,9.47,31.67,14.27,49.74,14.27c15.46,0,29.4-3.23,41.45-9.61v6.95h16h56.78h16v-16
				V2084.6v-16h-16h-56.78h-16v6.78C1790.95,2069.12,1777.12,2065.94,1761.81,2065.94L1761.81,2065.94z M1778.41,2207.07
				c-6.86,0-12.29-2.37-17.1-7.45c-4.99-5.27-7.41-12.69-7.41-22.71c0-9.93,2.37-17.19,7.26-22.22c4.83-4.96,10.31-7.27,17.25-7.27
				c6.9,0,12.36,2.34,17.18,7.37c4.93,5.14,7.33,12.49,7.33,22.46c0,9.97-2.4,17.32-7.33,22.46
				C1790.77,2204.73,1785.31,2207.07,1778.41,2207.07L1778.41,2207.07z"/>
		</g>
		<g>
			<path class="st0" d="M1908.88,2277.89V2076.6h72.78v17.3c3.97-3.55,8.26-6.68,12.84-9.38c11.17-6.57,23.71-9.91,37.27-9.91h8
				v76.1h-23.61c-12.13,0-21.1,2.42-26.66,7.2c-5.2,4.47-7.84,13.21-7.84,25.98v94H1908.88z"/>
			<path class="st1" d="M2031.77,2082.61v60.1h-15.61c-14.17,0-24.8,3.05-31.88,9.13c-7.09,6.09-10.63,16.77-10.63,32.04v86h-56.78
				V2084.6h56.78v30.88c6.64-10.18,14.94-18.21,24.91-24.07C2008.53,2085.54,2019.59,2082.61,2031.77,2082.61 M2047.77,2066.61h-16
				c-15.01,0-28.91,3.7-41.32,11.01c-0.26,0.16-0.53,0.31-0.79,0.47v-9.49h-16h-56.78h-16v16v185.29v16h16h56.78h16v-16v-86
				c0-9.89,1.84-17.15,5.05-19.91c4.01-3.45,11.43-5.27,21.45-5.27h15.61h16v-16v-60.1V2066.61L2047.77,2066.61z"/>
		</g>
		<path class="st1" d="M2204.11,2228.72h-87l-13.95,41.18h-59.44l84.34-233.11h65.75l84.34,233.11h-60.1L2204.11,2228.72z
			 M2189.5,2184.88l-28.89-85.34l-28.56,85.34H2189.5z"/>
		<path class="st1" d="M2383.42,2089.91c9.74-5.31,21.14-7.97,34.2-7.97c15.27,0,29.11,3.88,41.51,11.62
			c12.4,7.75,22.19,18.82,29.39,33.21c7.19,14.39,10.79,31.11,10.79,50.14c0,19.04-3.6,35.81-10.79,50.31
			c-7.2,14.5-16.99,25.68-29.39,33.54c-12.4,7.86-26.23,11.79-41.51,11.79c-12.84,0-24.19-2.66-34.04-7.97
			c-9.85-5.31-17.55-12.17-23.08-20.59v114.23h-56.78V2084.6h56.78v26.23C2366.04,2102.2,2373.68,2095.23,2383.42,2089.91z
			 M2429.75,2143.54c-7.86-8.08-17.55-12.12-29.06-12.12c-11.29,0-20.87,4.1-28.72,12.29c-7.86,8.19-11.79,19.37-11.79,33.54
			c0,14.17,3.93,25.35,11.79,33.54c7.86,8.19,17.43,12.29,28.72,12.29c11.29,0,20.92-4.15,28.89-12.45s11.95-19.54,11.95-33.71
			C2441.54,2162.75,2437.6,2151.62,2429.75,2143.54z"/>
		<path class="st1" d="M2712.16,2084.6v185.29h-56.78v-25.24c-5.76,8.19-13.56,14.78-23.41,19.76c-9.85,4.98-20.75,7.47-32.71,7.47
			c-14.17,0-26.68-3.15-37.52-9.46c-10.85-6.31-19.26-15.44-25.24-27.4c-5.98-11.95-8.97-26.01-8.97-42.17V2084.6h56.45v100.62
			c0,12.4,3.21,22.03,9.63,28.89c6.42,6.86,15.05,10.29,25.9,10.29c11.07,0,19.81-3.43,26.23-10.29c6.42-6.86,9.63-16.49,9.63-28.89
			V2084.6H2712.16z"/>
	</g>
	<path class="st2" d="M2379.18,2150.63c-6.06,6.31-9,15.02-9,26.61c0,11.6,2.94,20.3,9,26.61c5.94,6.2,12.98,9.21,21.51,9.21
		c8.53,0,15.62-3.07,21.68-9.38c6.17-6.43,9.17-15.19,9.17-26.78c0-11.56-2.93-20.2-8.96-26.4c-1.16-1.19-2.37-2.26-3.63-3.22
		c-0.17,0.26-0.35,0.52-0.52,0.78v-1.17c-5.06-3.68-10.91-5.49-17.73-5.49C2392.17,2141.42,2385.13,2144.43,2379.18,2150.63z"/>
	<polygon class="st2" points="2145.94,2174.88 2175.56,2174.88 2160.66,2130.89 	"/>
	<path class="st2" d="M1778.41,2141.42c-8.55,0-15.61,2.97-21.55,9.09c-6.03,6.2-8.96,14.83-8.96,26.4c0,11.62,2.96,20.4,9.05,26.83
		c5.94,6.28,12.96,9.33,21.46,9.33c8.53,0,15.56-3.01,21.51-9.21c6.06-6.31,9-15.02,9-26.62c0-11.59-2.95-20.3-9.01-26.62
		C1793.97,2144.43,1786.93,2141.42,1778.41,2141.42z"/>
	<path class="st3" d="M2418.95,2147.29c-0.17-0.13-0.35-0.25-0.52-0.38v1.17C2418.6,2147.81,2418.78,2147.55,2418.95,2147.29z"/>
	<polygon class="st2" points="2145.94,2174.88 2175.56,2174.88 2160.66,2130.89 	"/>
	<path class="st2" d="M1778.41,2141.42c-8.55,0-15.61,2.97-21.55,9.09c-6.03,6.2-8.96,14.83-8.96,26.4c0,11.62,2.96,20.4,9.05,26.83
		c5.94,6.28,12.96,9.33,21.46,9.33c8.53,0,15.56-3.01,21.51-9.21c6.06-6.31,9-15.02,9-26.62c0-11.59-2.95-20.3-9.01-26.62
		C1793.97,2144.43,1786.93,2141.42,1778.41,2141.42z"/>
	<path class="st2" d="M2619.52,2214.4c8.25,0,14.44-2.33,18.93-7.13c4.66-4.98,6.93-12.2,6.93-22.06v-27.3
		c-15.46,13.94-32.39,26.28-50.54,36.75c1.04,5.21,3.05,9.38,6.07,12.6C2605.4,2212.07,2611.49,2214.4,2619.52,2214.4z"/>
	<path class="st3" d="M2447.82,1998.59c0,0-16.14-114.85,104.79-74.54c0,0,56.42-84.64,145.07-26.21c0,0,17.21-13.38,40.26-15.96
		c-26.2-136.76-146.44-240.11-290.84-240.11c-163.56,0-296.16,132.59-296.16,296.16c0,30.95,4.76,60.8,13.57,88.84h36.32
		l47.19,130.42c14.07,12.78,29.37,24.22,45.71,34.13V2074.6h76.78v11.61c2.56-1.82,5.27-3.52,8.12-5.08
		c11.18-6.1,24.3-9.19,38.99-9.19c17.1,0,32.85,4.42,46.81,13.14c13.92,8.71,25.04,21.23,33.03,37.21
		c7.86,15.74,11.85,34.11,11.85,54.61c0,19.64-3.66,37.37-10.88,52.74c7.89-1.38,15.67-3.07,23.33-5.06
		c-2.81-9.68-4.24-20.3-4.24-31.74V2074.6h76.45v110.62c0,3.48,0.29,6.61,0.86,9.45c18.15-10.47,35.08-22.81,50.54-36.75v-83.32
		h64.51c13.17-25.28,22.8-52.69,28.23-81.58l-56.56-2.48L2447.82,1998.59z"/>
	<polygon class="st3" points="2743.26,1937.94 2743.26,1937.93 2743.26,1937.94 	"/>
	<path class="st3" d="M2400.69,2141.42c-8.53,0-15.56,3.01-21.51,9.21c-6.06,6.31-9,15.02-9,26.61c0,11.6,2.94,20.3,9,26.61
		c5.94,6.2,12.98,9.21,21.51,9.21c8.53,0,15.62-3.07,21.68-9.38c6.17-6.43,9.17-15.19,9.17-26.78c0-11.56-2.93-20.2-8.96-26.4
		C2416.63,2144.4,2409.47,2141.42,2400.69,2141.42z"/>
	<path class="st1" d="M2738.13,1993.02l1.37,0.06c2.48-18.02,3.76-36.43,3.76-55.14c0,0,0,0,0,0
		C2743.26,1956.76,2741.48,1975.17,2738.13,1993.02z"/>
	<path class="st1" d="M2739.37,1881.73c-0.48,0.04-0.96,0.1-1.43,0.15c3.48,18.15,5.32,36.88,5.32,56.05
		C2743.26,1918.88,2741.94,1900.1,2739.37,1881.73z"/>
	<path class="st1" d="M2743.26,1937.93c0-19.16-1.84-37.9-5.32-56.05c-23.04,2.58-40.26,15.96-40.26,15.96
		c-88.65-58.43-145.07,26.21-145.07,26.21c-120.94-40.31-104.79,74.54-104.79,74.54l233.75-8.06l56.56,2.48
		C2741.48,1975.17,2743.26,1956.76,2743.26,1937.93C2743.26,1937.94,2743.26,1937.94,2743.26,1937.93z"/>
</g>
</svg>
